<svg width="40" height="20" viewBox="0 0 40 20" fill="none" xmlns="http://www.w3.org/2000/svg">
<path id="Vector" d="M18.7539 19.5277L0.475364 2.55563C0.170223 2.27244 0 1.89621 0 1.50496C0 1.11372 0.170223 0.737486 0.475364 0.4543L0.496017 0.436026C0.643943 0.298265 0.822 0.188572 1.01936 0.113613C1.21671 0.0386543 1.42924 0 1.64402 0C1.85879 0 2.07132 0.0386543 2.26868 0.113613C2.46604 0.188572 2.64409 0.298265 2.79202 0.436026L20.0034 16.4183L37.208 0.436026C37.3559 0.298265 37.534 0.188572 37.7313 0.113613C37.9287 0.0386543 38.1412 0 38.356 0C38.5708 0 38.7833 0.0386543 38.9806 0.113613C39.178 0.188572 39.3561 0.298265 39.504 0.436026L39.5246 0.4543C39.8298 0.737486 40 1.11372 40 1.50496C40 1.89621 39.8298 2.27244 39.5246 2.55563L21.2461 19.5277C21.0854 19.6769 20.892 19.7957 20.6778 19.8769C20.4636 19.9581 20.233 20 20 20C19.767 20 19.5364 19.9581 19.3222 19.8769C19.108 19.7957 18.9146 19.6769 18.7539 19.5277Z" fill="#323232"/>
</svg>
