<svg width="30" height="51" viewBox="0 0 30 51" fill="none" xmlns="http://www.w3.org/2000/svg">
<path id="Vector" d="M29.2915 26.6658L3.83344 49.5139C3.40866 49.8954 2.84431 50.1082 2.25744 50.1082C1.67058 50.1082 1.10623 49.8954 0.68145 49.5139L0.654039 49.4881C0.447401 49.3032 0.28286 49.0807 0.170422 48.834C0.0579834 48.5873 0 48.3216 0 48.0531C0 47.7847 0.0579834 47.519 0.170422 47.2723C0.28286 47.0256 0.447401 46.803 0.654039 46.6181L24.6275 25.1039L0.654039 3.59818C0.447401 3.41328 0.28286 3.1907 0.170422 2.94401C0.0579834 2.69731 0 2.43165 0 2.16318C0 1.89471 0.0579834 1.62905 0.170422 1.38235C0.28286 1.13566 0.447401 0.91309 0.654039 0.72818L0.68145 0.702362C1.10623 0.320934 1.67058 0.108154 2.25744 0.108154C2.84431 0.108154 3.40866 0.320934 3.83344 0.702362L29.2915 23.5505C29.5154 23.7515 29.6936 23.9931 29.8154 24.2609C29.9372 24.5286 30 24.8169 30 25.1082C30 25.3994 29.9372 25.6877 29.8154 25.9554C29.6936 26.2232 29.5154 26.4649 29.2915 26.6658Z" fill="#323232"/>
</svg>
