<svg width="30" height="51" viewBox="0 0 30 51" fill="none" xmlns="http://www.w3.org/2000/svg">
<path id="Vector" d="M0.708515 26.6658L26.1666 49.5139C26.5913 49.8954 27.1557 50.1082 27.7426 50.1082C28.3294 50.1082 28.8938 49.8954 29.3186 49.5139L29.346 49.4881C29.5526 49.3032 29.7171 49.0807 29.8296 48.834C29.942 48.5873 30 48.3216 30 48.0531C30 47.7847 29.942 47.519 29.8296 47.2723C29.7171 47.0256 29.5526 46.803 29.346 46.6181L5.37255 25.1039L29.346 3.59818C29.5526 3.41328 29.7171 3.1907 29.8296 2.94401C29.942 2.69731 30 2.43165 30 2.16318C30 1.89471 29.942 1.62905 29.8296 1.38235C29.7171 1.13566 29.5526 0.91309 29.346 0.72818L29.3186 0.702362C28.8938 0.320934 28.3294 0.108154 27.7426 0.108154C27.1557 0.108154 26.5913 0.320934 26.1666 0.702362L0.708515 23.5505C0.484621 23.7515 0.306378 23.9931 0.184589 24.2609C0.0627995 24.5286 0 24.8169 0 25.1082C0 25.3994 0.0627995 25.6877 0.184589 25.9554C0.306378 26.2232 0.484621 26.4649 0.708515 26.6658Z" fill="#323232"/>
</svg>
